<?xml version="1.0" encoding="utf-8"?>
<!-- Generator: Adobe Illustrator 22.1.0, SVG Export Plug-In . SVG Version: 6.00 Build 0)  -->
<svg version="1.1" id="图层_1" xmlns="http://www.w3.org/2000/svg" xmlns:xlink="http://www.w3.org/1999/xlink" x="0px" y="0px"
	 viewBox="0 0 274 72" style="enable-background:new 0 0 274 72;" xml:space="preserve">
<style type="text/css">
	.st0{fill:#FFFFFF;}
	.st1{fill-rule:evenodd;clip-rule:evenodd;fill:#FFFFFF;}
</style>
<g>
	<g id="XMLID_1718_">
		<g id="XMLID_848_">
			<path id="XMLID_861_" class="st0" d="M38.1,26.1h-6.2c-0.8,0-1.4,0.6-1.4,1.4v16.9c0,0.8,0.6,1.4,1.4,1.4h6.2
				c5.7,0,10.4-4.4,10.4-9.9S43.8,26.1,38.1,26.1z"/>
			<path id="XMLID_1547_" class="st0" d="M37.9,0.8C18.5,0.8,2.7,16.6,2.7,36s15.8,35.2,35.2,35.2c19.4,0,35.2-15.8,35.2-35.2
				S57.4,0.8,37.9,0.8z M39.2,50.7v2.5c0,0.4-0.3,0.7-0.7,0.7h-1.8c-0.4,0-0.7-0.3-0.7-0.7v-2.5h-2.8v2.5c0,0.4-0.3,0.7-0.7,0.7
				h-1.8c-0.4,0-0.7-0.3-0.7-0.7v-2.5h-3c-0.8,0-1.4-0.6-1.4-1.4V22.6c0-0.8,0.6-1.4,1.4-1.4h3v-2.5c0-0.4,0.3-0.7,0.7-0.7h1.8
				c0.4,0,0.7,0.3,0.7,0.7v2.5H36v-2.5c0-0.4,0.3-0.7,0.7-0.7h1.8c0.4,0,0.7,0.3,0.7,0.7v2.5c8.2,0.6,14.6,7,14.6,14.7
				S47.3,50.2,39.2,50.7z"/>
		</g>
	</g>
	<g id="XMLID_1581_">
		<path id="XMLID_1691_" class="st1" d="M144.3,52.6c-0.9,0-1.6-0.7-1.6-1.6V28.8c0-0.9,0.7-1.6,1.6-1.6h0.8c0.9,0,1.6,0.7,1.6,1.6
			V51c0,0.9-0.7,1.6-1.6,1.6H144.3z M141.3,50.9c-1.7,1.1-3.7,1.8-5.9,2c-7.4,0.7-14.1-4.8-14.8-12.3c-0.7-7.4,4.8-14.1,12.3-14.8
			c3-0.3,6,0.5,8.4,2v5.3c-1.9-2.2-4.9-3.5-8-3.2c-5.2,0.5-9.1,5.1-8.6,10.3c0.5,5.2,5.1,9.1,10.3,8.6c2.5-0.2,4.7-1.4,6.3-3.2V50.9
			z"/>
		<path id="XMLID_1683_" class="st1" d="M174.9,38.4c-0.5-5.2-5.1-9.1-10.3-8.6c-5.2,0.5-9.1,5.1-8.6,10.3c0.5,5.2,5.1,9.1,10.3,8.6
			C171.5,48.3,175.4,43.7,174.9,38.4z M178.9,38.1c0.7,7.4-4.8,14.1-12.3,14.8c-7.4,0.7-14.1-4.8-14.8-12.3
			c-0.7-7.4,4.8-14.1,12.3-14.8C171.6,25.1,178.3,30.6,178.9,38.1z"/>
		<path id="XMLID_1583_" class="st1" d="M99.6,22.7H89.1v26.5h10.6C116.8,49.2,117.6,22.7,99.6,22.7z M100.3,53.3H88.4
			c-1.6,0-3.4-0.9-3.4-3.1V21.8c0-1.8,1.8-3.1,3.4-3.1h11.4C122.7,18.7,122.2,53.3,100.3,53.3z"/>
	</g>
	<g>
		<g>
			<path class="st0" d="M192.4,52.9h-1.1c-0.6,0-1.2-0.5-1.2-1.2V23c0-0.6-0.5-1.2-1.2-1.2h-5.5c-0.6,0-1.2-0.5-1.2-1.2v-0.9
				c0-0.6,0.5-1.2,1.2-1.2h16.7c0.6,0,1.2,0.5,1.2,1.2v0.9c0,0.6-0.5,1.2-1.2,1.2h-5.5c-0.6,0-1.2,0.5-1.2,1.2v28.8
				C193.6,52.4,193.1,52.9,192.4,52.9z"/>
			<path class="st0" d="M205.9,52.9h-1.2c-0.6,0-1.2-0.5-1.2-1.2V28.7c0-0.6,0.5-1.2,1.2-1.2h0.8c0.6,0,1.2,0.5,1.2,1.2v2.4
				c0.7-1.4,1.8-2.4,3.2-3.2c0.8-0.4,1.7-0.7,2.6-0.9c0.7-0.1,1.4,0.4,1.4,1.2v1.1c0,0.6-0.4,1.1-0.9,1.1c-1.1,0.2-2.1,0.6-2.9,1.2
				c-1,0.8-1.6,1.5-2,2.1c-0.6,1-0.8,2.3-0.8,3.9v14C207.1,52.4,206.5,52.9,205.9,52.9z"/>
			<path class="st0" d="M238.8,42c0,3.3-1.1,6.1-3.2,8.2c-2.1,2.2-4.8,3.3-8,3.3c-3.3,0-5.9-1.1-8.1-3.3c-2.1-2.2-3.2-4.9-3.2-8.2
				V28.6c0-0.6,0.5-1.2,1.2-1.2h1.1c0.6,0,1.2,0.5,1.2,1.2v13.7c0,2.1,0.8,4,2.3,5.5c1.6,1.5,3.4,2.3,5.5,2.3c2.1,0,3.9-0.8,5.4-2.3
				c1.6-1.6,2.4-3.4,2.4-5.5V28.6c0-0.6,0.5-1.2,1.2-1.2h1.1c0.6,0,1.2,0.5,1.2,1.2V42z"/>
			<path class="st0" d="M271.3,52.5c0,0.5-0.4,0.9-0.9,0.9c-5.6-0.2-8.4-2.9-8.4-7.9V19.4c0-0.5,0.4-0.9,0.9-0.9h1.7
				c0.5,0,0.9,0.4,0.9,0.9v7.1c0,0.5,0.4,0.9,0.9,0.9h4.1c0.5,0,0.9,0.4,0.9,0.9v1.4c0,0.5-0.4,0.9-0.9,0.9h-4.1
				c-0.5,0-0.9,0.4-0.9,0.9V45c0,3.5,1.7,5.4,5,5.6c0.5,0,0.8,0.4,0.8,0.9V52.5z"/>
		</g>
		<path class="st0" d="M252.5,38.4l-3.1-0.9c-1.7-0.5-2.6-1.6-2.6-3.3c0-1.1,0.4-1.9,1.2-2.7c0.9-0.8,1.8-1.1,2.9-1.1
			c1,0.1,1.9,0.5,2.6,1.2c0.7,0.7,1.1,1.6,1.1,2.7c0,1,0.8,1.7,1.8,1.7c1,0,1.8-0.8,1.8-1.8c0-1.9-0.7-3.5-2-4.9
			c-0.1-0.1-0.2-0.2-0.3-0.2l-0.1-0.1c-1.4-1.2-3.1-1.9-4.8-1.9c-2.1-0.1-3.9,0.6-5.4,2c-1.5,1.3-2.3,3-2.2,4.9
			c0,3.2,1.8,5.5,4.9,6.4l2.7,0.8c2.9,0.9,4.3,2.3,4.4,4.4c0,1.2-0.4,2.3-1.4,3.2c-0.9,0.9-2.2,1.3-3.5,1.3
			c-1.2-0.1-2.3-0.5-3.1-1.4c-0.9-0.9-1.3-2-1.3-3.1c0,0,0-0.1,0-0.1c0-0.9-0.8-1.7-1.8-1.7c-1,0-1.8,0.7-1.8,1.7c0,0,0,0,0,0.1
			c0,2.1,0.8,3.9,2.2,5.4c0,0.1,0.1,0.1,0.2,0.2c1.6,1.5,3.5,2.2,5.7,2.2c2.2,0,4.2-0.8,5.7-2.2c1.6-1.5,2.4-3.4,2.4-5.5
			C258.8,42.1,256.6,39.6,252.5,38.4z"/>
	</g>
</g>
</svg>
