<?xml version="1.0" encoding="utf-8"?>
<!-- Generator: Adobe Illustrator 22.1.0, SVG Export Plug-In . SVG Version: 6.00 Build 0)  -->
<svg version="1.1" id="图层_1" xmlns="http://www.w3.org/2000/svg" xmlns:xlink="http://www.w3.org/1999/xlink" x="0px" y="0px"
	 viewBox="0 0 274 72" style="enable-background:new 0 0 274 72;" xml:space="preserve">
<style type="text/css">
	.st0{fill-rule:evenodd;clip-rule:evenodd;fill:url(#XMLID_2_);}
	.st1{fill-rule:evenodd;clip-rule:evenodd;fill:url(#XMLID_3_);}
	.st2{fill-rule:evenodd;clip-rule:evenodd;fill:url(#XMLID_4_);}
	.st3{fill:url(#XMLID_5_);}
	.st4{fill-rule:evenodd;clip-rule:evenodd;fill:#FFFFFF;}
	.st5{fill:#384C93;}
</style>
<g>
	<g id="XMLID_1603_">
		<linearGradient id="XMLID_2_" gradientUnits="userSpaceOnUse" x1="123.3596" y1="35.4206" x2="151.3942" y2="43.6239">
			<stop  offset="1.137031e-03" style="stop-color:#3D31E6"/>
			<stop  offset="1" style="stop-color:#3D90FB"/>
		</linearGradient>
		<path id="XMLID_1610_" class="st0" d="M144.8,52.6c-0.9,0-1.6-0.7-1.6-1.6V28.8c0-0.9,0.7-1.6,1.6-1.6h0.8c0.9,0,1.6,0.7,1.6,1.6
			V51c0,0.9-0.7,1.6-1.6,1.6H144.8z M141.8,50.9c-1.7,1.1-3.7,1.8-5.9,2c-7.4,0.7-14.1-4.8-14.8-12.3c-0.7-7.4,4.8-14.1,12.3-14.8
			c3-0.3,6,0.5,8.4,2v5.3c-1.9-2.2-4.9-3.5-8-3.2c-5.2,0.5-9.1,5.1-8.6,10.3c0.5,5.2,5.1,9.1,10.3,8.6c2.5-0.2,4.7-1.4,6.3-3.2V50.9
			z"/>
		<linearGradient id="XMLID_3_" gradientUnits="userSpaceOnUse" x1="152.84" y1="35.521" x2="174.9294" y2="41.9846">
			<stop  offset="1.137031e-03" style="stop-color:#3D31E6"/>
			<stop  offset="1" style="stop-color:#3D90FB"/>
		</linearGradient>
		<path id="XMLID_1607_" class="st1" d="M175.4,38.5c-0.5-5.2-5.1-9.1-10.3-8.6c-5.2,0.5-9.1,5.1-8.6,10.3c0.5,5.2,5.1,9.1,10.3,8.6
			C172,48.3,175.8,43.7,175.4,38.5z M179.4,38.1c0.7,7.4-4.8,14.1-12.3,14.8c-7.4,0.7-14.1-4.8-14.8-12.3
			c-0.7-7.4,4.8-14.1,12.3-14.8C172.1,25.1,178.7,30.6,179.4,38.1z"/>
		<linearGradient id="XMLID_4_" gradientUnits="userSpaceOnUse" x1="90.8054" y1="34.5509" x2="170.1591" y2="57.7708">
			<stop  offset="1.137031e-03" style="stop-color:#3D31E6"/>
			<stop  offset="1" style="stop-color:#3D90FB"/>
		</linearGradient>
		<path id="XMLID_1604_" class="st2" d="M100.1,22.8H89.5v26.5h10.6C117.3,49.2,118,22.8,100.1,22.8z M100.8,53.3H88.9
			c-1.6,0-3.4-0.9-3.4-3.1V21.8c0-1.8,1.8-3.1,3.4-3.1h11.4C123.2,18.7,122.7,53.3,100.8,53.3z"/>
	</g>
	<linearGradient id="XMLID_5_" gradientUnits="userSpaceOnUse" x1="30.1498" y1="16.5379" x2="48.4102" y2="65.2322">
		<stop  offset="1.137031e-03" style="stop-color:#3D31E6"/>
		<stop  offset="1" style="stop-color:#3D90FB"/>
	</linearGradient>
	<circle id="XMLID_1601_" class="st3" cx="37.4" cy="36" r="35.2"/>
	<path id="XMLID_1586_" class="st4" d="M38.7,21.3v-2.5c0-0.4-0.3-0.7-0.7-0.7h-1.8c-0.4,0-0.7,0.3-0.7,0.7v2.5h-2.8v-2.5
		c0-0.4-0.3-0.7-0.7-0.7h-1.8c-0.4,0-0.7,0.3-0.7,0.7v2.5h-3c-0.8,0-1.4,0.6-1.4,1.4v26.8c0,0.8,0.6,1.4,1.4,1.4h3v2.5
		c0,0.4,0.3,0.7,0.7,0.7H32c0.4,0,0.7-0.3,0.7-0.7v-2.5h2.8v2.5c0,0.4,0.3,0.7,0.7,0.7H38c0.4,0,0.7-0.3,0.7-0.7v-2.5
		c8.1-0.6,14.6-7,14.6-14.7S46.9,21.8,38.7,21.3z M37.6,45.9h-6.2c-0.8,0-1.4-0.6-1.4-1.4V27.5c0-0.8,0.6-1.4,1.4-1.4h6.2
		c5.7,0,10.4,4.4,10.4,9.9S43.4,45.9,37.6,45.9z"/>
	<g>
		<g>
			<path class="st5" d="M192.9,52.9h-1.1c-0.6,0-1.2-0.5-1.2-1.2V23c0-0.6-0.5-1.2-1.2-1.2H184c-0.6,0-1.2-0.5-1.2-1.2v-0.9
				c0-0.6,0.5-1.2,1.2-1.2h16.7c0.6,0,1.2,0.5,1.2,1.2v0.9c0,0.6-0.5,1.2-1.2,1.2h-5.5c-0.6,0-1.2,0.5-1.2,1.2v28.8
				C194.1,52.4,193.5,52.9,192.9,52.9z"/>
			<path class="st5" d="M206.4,52.9h-1.2c-0.6,0-1.2-0.5-1.2-1.2V28.7c0-0.6,0.5-1.2,1.2-1.2h0.8c0.6,0,1.2,0.5,1.2,1.2v2.4
				c0.7-1.4,1.8-2.4,3.2-3.2c0.8-0.4,1.7-0.7,2.6-0.9c0.7-0.1,1.4,0.4,1.4,1.2v1.1c0,0.6-0.4,1.1-0.9,1.1c-1.1,0.2-2.1,0.6-2.9,1.2
				c-1,0.8-1.6,1.5-2,2.1c-0.6,1-0.8,2.3-0.8,3.9v14C207.5,52.4,207,52.9,206.4,52.9z"/>
			<path class="st5" d="M239.3,42c0,3.3-1.1,6.1-3.2,8.2c-2.1,2.2-4.8,3.3-8,3.3c-3.3,0-5.9-1.1-8.1-3.3c-2.1-2.2-3.2-4.9-3.2-8.2
				V28.7c0-0.6,0.5-1.2,1.2-1.2h1.1c0.6,0,1.2,0.5,1.2,1.2v13.7c0,2.1,0.8,4,2.3,5.5c1.6,1.5,3.4,2.3,5.5,2.3c2.1,0,3.9-0.8,5.4-2.3
				c1.6-1.6,2.4-3.4,2.4-5.5V28.7c0-0.6,0.5-1.2,1.2-1.2h1.1c0.6,0,1.2,0.5,1.2,1.2V42z"/>
			<path class="st5" d="M271.8,52.6c0,0.5-0.4,0.9-0.9,0.9c-5.6-0.2-8.4-2.9-8.4-7.9V19.5c0-0.5,0.4-0.9,0.9-0.9h1.7
				c0.5,0,0.9,0.4,0.9,0.9v7.1c0,0.5,0.4,0.9,0.9,0.9h4.1c0.5,0,0.9,0.4,0.9,0.9v1.4c0,0.5-0.4,0.9-0.9,0.9h-4.1
				c-0.5,0-0.9,0.4-0.9,0.9V45c0,3.5,1.7,5.4,5,5.6c0.5,0,0.8,0.4,0.8,0.9V52.6z"/>
		</g>
		<path class="st5" d="M253,38.5l-3.1-0.9c-1.7-0.5-2.6-1.6-2.6-3.3c0-1.1,0.4-1.9,1.2-2.7c0.9-0.8,1.8-1.1,2.9-1.1
			c1,0.1,1.9,0.5,2.6,1.2c0.7,0.7,1.1,1.6,1.1,2.7c0,1,0.8,1.7,1.8,1.7c1,0,1.8-0.8,1.8-1.8c0-1.9-0.7-3.5-2-4.9
			c-0.1-0.1-0.2-0.2-0.3-0.2l-0.1-0.1c-1.4-1.2-3.1-1.9-4.8-1.9c-2.1-0.1-3.9,0.6-5.4,2c-1.5,1.3-2.3,3-2.2,4.9
			c0,3.2,1.8,5.5,4.9,6.4l2.7,0.8c2.9,0.9,4.3,2.3,4.4,4.4c0,1.2-0.4,2.3-1.4,3.2c-0.9,0.9-2.2,1.3-3.5,1.3
			c-1.2-0.1-2.3-0.5-3.1-1.4c-0.9-0.9-1.3-2-1.3-3.1c0,0,0-0.1,0-0.1c0-0.9-0.8-1.7-1.8-1.7c-1,0-1.8,0.7-1.8,1.7c0,0,0,0,0,0.1
			c0,2.1,0.8,3.9,2.2,5.4c0,0.1,0.1,0.1,0.2,0.2c1.6,1.5,3.5,2.2,5.7,2.2c2.2,0,4.2-0.8,5.7-2.2c1.6-1.5,2.4-3.4,2.4-5.5
			C259.2,42.2,257.1,39.7,253,38.5z"/>
	</g>
</g>
</svg>
