<?xml version="1.0" encoding="utf-8"?>
<!-- Generator: Adobe Illustrator 22.1.0, SVG Export Plug-In . SVG Version: 6.00 Build 0)  -->
<svg version="1.1" id="图层_1" xmlns="http://www.w3.org/2000/svg" xmlns:xlink="http://www.w3.org/1999/xlink" x="0px" y="0px"
	 viewBox="0 0 24 24" style="enable-background:new 0 0 24 24;" xml:space="preserve">
<style type="text/css">
	.st0{display:none;fill:#E60012;}
	.st1{display:none;fill:#FFF100;}
	.st2{fill:#FFFFFF;}
	.st3{fill:#E50012;}
	.st4{fill:#1E2380;}
</style>
<path class="st0" d="M0.3,4.4h23.3v15.2H0.3V4.4z"/>
<path class="st1" d="M5.2,7.1l0.4,1.3l1.4,0L5.9,9.2l0.4,1.3L5.2,9.7l-1.1,0.8l0.4-1.3L3.4,8.4l1.4,0L5.2,7.1z M9.7,9.7l0.1,0.4
	l0.4,0l-0.3,0.2l0.1,0.4l-0.3-0.2l-0.3,0.2l0.1-0.4l-0.3-0.2l0.4,0L9.7,9.7z M9.5,7.8l0.2,0.3L10.2,8L9.9,8.4l0.2,0.3L9.8,8.6
	L9.5,8.9l0-0.4L9.1,8.4l0.4-0.1L9.5,7.8z M7.9,6.8l0.4,0.1l0.2-0.3l0,0.4L9,7.1L8.6,7.2l0,0.4L8.3,7.3L7.9,7.4l0.2-0.3L7.9,6.8z
	 M8.6,11l0,0.4L9,11.5l-0.4,0.1l0,0.4l-0.2-0.3l-0.4,0.1l0.2-0.3l-0.2-0.3l0.4,0.1L8.6,11z"/>
<g>
	<path class="st2" d="M10.8,10.2h12.9v1.1H10.8V10.2z M0.3,17.3h23.3v1.1H0.3V17.3z M0.3,15h23.3v1.1H0.3V15z M0.3,12.6h23.3v1.1
		H0.3V12.6z M10.8,7.9h12.9V9H10.8V7.9z M10.8,5.6h12.9v1.1H10.8V5.6z"/>
	<path class="st3" d="M0.3,18.4h23.3v1.2H0.3V18.4z M0.3,13.8h23.3V15H0.3V13.8z M0.3,16.1h23.3v1.2H0.3V16.1z M10.8,6.7h12.9v1.2
		H10.8V6.7z M10.8,9h12.9v1.2H10.8V9z M10.8,12.4H0.3v0.2h23.3v-1.2H10.8V12.4z M10.8,4.4h12.9v1.2H10.8V4.4z"/>
	<path class="st4" d="M1.4,9h0.2H1.4L1.4,9z M6.3,9h0.2H6.3L6.3,9z M9.5,9h0.2H9.5L9.5,9z M8.6,6.7h0.3L8.8,6.5L8.6,6.7z M7.9,9H8
		H7.9L7.9,9z M7,6.7h0.3L7.2,6.5L7,6.7z M3.8,6.7h0.3L3.9,6.5L3.8,6.7z M5.4,6.7h0.3L5.6,6.5L5.4,6.7z M2.2,6.7h0.3L2.3,6.5L2.2,6.7
		z M3.1,9h0.2H3.1L3.1,9z M4.7,9h0.2H4.7L4.7,9z"/>
	<path class="st4" d="M2.2,6.5L1.9,6.3h0.3L2.3,6l0.1,0.3h0.3L2.5,6.5l0.1,0.2h1.1l0.1-0.2L3.5,6.3h0.3L3.9,6L4,6.3h0.3L4.1,6.5
		l0.1,0.2h1.1l0.1-0.2L5.1,6.3h0.3L5.6,6l0.1,0.3H6L5.7,6.5l0.1,0.2h1.1L7,6.5L6.8,6.3h0.3L7.2,6l0.1,0.3h0.3L7.3,6.5l0.1,0.2h1.1
		l0.1-0.2L8.4,6.3h0.3L8.8,6l0.1,0.3h0.3L8.9,6.5L9,6.7h1.8V5.6h-1L9.7,5.7L9.8,6L9.6,5.7L9.3,6l0.1-0.3L9.3,5.6H8.2L8.1,5.7L8.2,6
		L8,5.7L7.7,6l0.1-0.3L7.7,5.6H6.6L6.5,5.7L6.6,6L6.4,5.7L6.1,6l0.1-0.3L6.1,5.6H5L4.9,5.7L5,6L4.7,5.7L4.5,6l0.1-0.3L4.5,5.6H3.4
		L3.3,5.7L3.4,6L3.1,5.7L2.9,6L3,5.7L2.9,5.6H1.8L1.7,5.7L1.8,6L1.5,5.7L1.3,6l0.1-0.3L1.3,5.6h-1v1.1h1.8L2.2,6.5z M2.2,11.3
		l-0.2-0.2h0.3l0.1-0.3l0.1,0.3h0.3l-0.2,0.2v0.1h1.3v-0.1l-0.2-0.2h0.3l0.1-0.3L4,11.1h0.3l-0.2,0.2v0.1h1.3v-0.1l-0.2-0.2h0.3
		l0.1-0.3l0.1,0.3H6l-0.2,0.2v0.1H7v-0.1l-0.2-0.2h0.3l0.1-0.3l0.1,0.3h0.3l-0.2,0.2v0.1h1.3v-0.1l-0.2-0.2h0.3l0.1-0.3l0.1,0.3h0.3
		l-0.2,0.2v0.1h1.9v-1.1H9.7v0.1H10l-0.2,0.2l0.1,0.3l-0.2-0.2l-0.2,0.2l0.1-0.3l-0.2-0.2h0.3v-0.1H8v0.1h0.3l-0.2,0.2l0.1,0.3
		L8,10.6l-0.2,0.2l0.1-0.3l-0.2-0.2h0.3v-0.1H6.4v0.1h0.3l-0.2,0.2l0.1,0.3l-0.2-0.2l-0.2,0.2l0.1-0.3L6,10.3h0.3v-0.1H4.8v0.1h0.3
		l-0.2,0.2L5,10.8l-0.2-0.2l-0.2,0.2l0.1-0.3l-0.2-0.2h0.3v-0.1H3.2v0.1h0.3l-0.2,0.2l0.1,0.3l-0.2-0.2l-0.2,0.2L3,10.5l-0.2-0.2
		h0.3v-0.1H1.6v0.1h0.3l-0.2,0.2l0.1,0.3l-0.2-0.2l-0.2,0.2l0.1-0.3l-0.2-0.2h0.3v-0.1H0.3v1.1L2.2,11.3L2.2,11.3z M1.4,8.9L1.1,8.7
		h0.3l0.1-0.3l0.1,0.3h0.3L1.7,8.9V9h1.2L3,8.9L2.7,8.7h0.3l0.1-0.3l0.1,0.3h0.3L3.3,8.9L3.4,9h1.1l0.1-0.2L4.3,8.7h0.3l0.1-0.3
		l0.1,0.3h0.3L4.9,8.9L5,9h1.2V8.9L6,8.7h0.3l0.1-0.3l0.1,0.3h0.3L6.5,8.9L6.6,9h1.2V8.9L7.6,8.7h0.3L8,8.4L8,8.7h0.3L8.1,8.9L8.2,9
		h1.2V8.9L9.2,8.7h0.3l0.1-0.3l0.1,0.3H10L9.7,8.9L9.8,9h1V7.9H9.2L8.9,8.1L9,8.4L8.8,8.2L8.5,8.4l0.1-0.3L8.4,7.9H7.6L7.3,8.1
		l0.1,0.3L7.2,8.2L6.9,8.4L7,8.1L6.8,7.9H6L5.7,8.1l0.1,0.3L5.6,8.2L5.3,8.4l0.1-0.3L5.2,7.9h-1L4.1,8.1l0.1,0.3L3.9,8.2L3.7,8.4
		l0.1-0.3L3.5,7.9H2.7L2.5,8.1l0.1,0.3L2.3,8.2L2.1,8.4l0.1-0.3L1.9,7.9H0.3V9h1L1.4,8.9z M6.1,12.4h0.5l-0.2-0.2L6.1,12.4z"/>
	<path class="st4" d="M1.4,12.1l-0.2-0.2h0.3l0.1-0.3l0.1,0.3h0.3l-0.2,0.2l0.1,0.3h1.1L3,12.1l-0.2-0.2h0.3l0.1-0.3l0.1,0.3h0.3
		l-0.2,0.2l0.1,0.3h1.1l0.1-0.3l-0.2-0.2h0.3l0.1-0.3l0.1,0.3h0.3l-0.2,0.2L5,12.4h1.1l0.1-0.3L6,11.9h0.3l0.1-0.3l0.1,0.3h0.3
		l-0.2,0.2l0.1,0.3h1.1l0.1-0.3l-0.2-0.2h0.3L8,11.6L8,11.9h0.3l-0.2,0.2l0.1,0.3h1.1l0.1-0.3l-0.2-0.2h0.3l0.1-0.3l0.1,0.3H10
		l-0.2,0.2l0.1,0.3h1v-1H8.9L9,11.6l-0.2-0.2l-0.2,0.2l0.1-0.2H7.3l0.1,0.2l-0.2-0.2l-0.2,0.2L7,11.4H5.7l0.1,0.2l-0.2-0.2l-0.2,0.2
		l0.1-0.2H4.1l0.1,0.2l-0.2-0.2l-0.2,0.2l0.1-0.2H2.5l0.1,0.2l-0.2-0.2l-0.2,0.2l0.1-0.2H0.3v1h1L1.4,12.1z M1.1,5.5h0.3l0.1-0.3
		l0.1,0.3h0.3L1.8,5.6h1.1L2.7,5.5h0.3l0.1-0.3l0.1,0.3h0.3L3.4,5.6h1.1L4.3,5.5h0.3l0.1-0.3l0.1,0.3h0.3L5,5.6h1.1L6,5.5h0.3
		l0.1-0.3l0.1,0.3h0.3L6.6,5.6h1.1L7.6,5.5h0.3L8,5.2L8,5.5h0.3L8.2,5.6h1.1L9.2,5.5h0.3l0.1-0.3l0.1,0.3H10L9.8,5.6h1V4.4H0.3v1.2
		h1L1.1,5.5z"/>
	<path class="st4" d="M1.3,12.4h0.5l-0.2-0.2L1.3,12.4z M4.5,12.4H5l-0.2-0.2L4.5,12.4z M1.9,7.9h0.3l0.1-0.3l0.1,0.3h1.4l0.1-0.3
		L4,7.9h1.5V7.6l0.1,0.3h1.5V7.6l0.1,0.3h1.5V7.6l0.1,0.3h1.9V6.7H9v0.1L8.9,6.7H8.5v0.1V6.7H7.4v0.1L7.3,6.7H7L6.9,6.8V6.7H5.8v0.1
		L5.7,6.7H5.4L5.3,6.8V6.7H4.2v0.1L4.1,6.7H3.8L3.7,6.8V6.7H2.6v0.1L2.5,6.7H2.2L2.1,6.8V6.7H0.3v1.2C0.3,7.9,1.9,7.9,1.9,7.9z
		 M9.5,7.1l0.1-0.3l0.1,0.3H10L9.7,7.3l0.1,0.3L9.6,7.4L9.3,7.6l0.1-0.3L9.2,7.1C9.2,7.1,9.5,7.1,9.5,7.1z M7.9,7.1L8,6.8L8,7.1h0.3
		L8.1,7.3l0.1,0.3L8,7.3L7.7,7.6l0.1-0.3L7.6,7.1C7.6,7.1,7.9,7.1,7.9,7.1z M6.3,7.1l0.1-0.3l0.1,0.3h0.3L6.5,7.3l0.1,0.3L6.4,7.3
		L6.1,7.6l0.1-0.3L6,7.1C6,7.1,6.3,7.1,6.3,7.1z M4.7,7.1l0.1-0.3l0.1,0.3h0.3L4.9,7.3L5,7.6L4.7,7.3L4.5,7.6l0.1-0.3L4.3,7.1
		C4.3,7.1,4.7,7.1,4.7,7.1z M3.1,7.1l0.1-0.3l0.1,0.3h0.3L3.3,7.3l0.1,0.3L3.1,7.3L2.9,7.6L3,7.3L2.7,7.1C2.7,7.1,3.1,7.1,3.1,7.1z
		 M1.8,7.6L1.5,7.3L1.3,7.6l0.1-0.3L1.1,7.1h0.3l0.1-0.3l0.1,0.3h0.3L1.7,7.3L1.8,7.6z M9.3,12.4h0.5l-0.2-0.2L9.3,12.4z M1.5,10
		l0.1,0.2h1.4L3.1,10l0.1,0.2h1.4L4.7,10l0.1,0.2h1.4L6.4,10l0.1,0.2h1.4L8,10L8,10.2h1.4L9.6,10l0.1,0.2h1.1V9h-1v0.2L9.7,9H9.5
		L9.3,9.2V9H8.2v0.2L8,9H7.9L7.7,9.2V9H6.6v0.2L6.4,9H6.3L6.1,9.2V9H5v0.2L4.8,9H4.7L4.5,9.2V9H3.4v0.2L3.2,9H3.1L2.9,9.2V9H1.7v0.2
		L1.6,9H1.4L1.3,9.2V9h-1v1.2h1.1C1.4,10.2,1.5,10,1.5,10z M8.7,9.5l0.1-0.3l0.1,0.3h0.3L8.9,9.7L9,10L8.8,9.8L8.5,10l0.1-0.3
		L8.4,9.5C8.4,9.5,8.7,9.5,8.7,9.5z M7.1,9.5l0.1-0.3l0.1,0.3h0.3L7.3,9.7L7.4,10L7.2,9.8L6.9,10L7,9.7L6.8,9.5H7.1z M5.5,9.5
		l0.1-0.3l0.1,0.3H6L5.7,9.7L5.8,10L5.6,9.8L5.3,10l0.1-0.3L5.1,9.5H5.5z M3.9,9.5l0.1-0.3L4,9.5h0.3L4.1,9.7L4.2,10L3.9,9.8L3.7,10
		l0.1-0.3L3.5,9.5C3.5,9.5,3.9,9.5,3.9,9.5z M2.3,9.5l0.1-0.3l0.1,0.3h0.3L2.5,9.7L2.6,10L2.3,9.8L2.1,10l0.1-0.3L1.9,9.5
		C1.9,9.5,2.3,9.5,2.3,9.5z M2.9,12.4h0.5l-0.2-0.2L2.9,12.4z M7.7,12.4h0.5L8,12.2L7.7,12.4z"/>
	<path class="st2" d="M8.4,8.7H8L8,8.4L7.9,8.7H7.6l0.2,0.2V9h0.4L8.1,8.9L8.4,8.7z M8.6,8.1L8.5,8.4l0.2-0.2L9,8.4L8.9,8.1l0.2-0.2
		H8.4L8.6,8.1z M5.4,8.1L5.3,8.4l0.2-0.2l0.2,0.2L5.7,8.1L6,7.9H5.2L5.4,8.1z M3.8,8.1L3.7,8.4l0.2-0.2l0.2,0.2L4.1,8.1l0.2-0.2H3.5
		L3.8,8.1z M10,8.7H9.7L9.6,8.4L9.5,8.7H9.2l0.2,0.2V9h0.4L9.7,8.9L10,8.7z M6.8,8.7H6.4L6.4,8.4L6.3,8.7H6l0.2,0.2V9h0.4L6.5,8.9
		L6.8,8.7z M5.1,8.7H4.8L4.7,8.4L4.7,8.7H4.3l0.2,0.2L4.5,9H5L4.9,8.9L5.1,8.7z M7.9,10.3H7.6l0.2,0.2l-0.1,0.3L8,10.6l0.2,0.2
		l-0.1-0.3l0.2-0.2H8v-0.1L7.9,10.3L7.9,10.3z M6,11.1H5.6l-0.1-0.3l-0.1,0.3H5.1l0.2,0.2v0.1h0.3v-0.1L6,11.1z M7.6,11.1H7.2
		l-0.1-0.3l-0.1,0.3H6.8L7,11.3v0.1h0.3v-0.1L7.6,11.1z M9.2,11.1H8.9l-0.1-0.3l-0.1,0.3H8.4l0.2,0.2v0.1h0.3v-0.1L9.2,11.1z
		 M2.7,11.1H2.4l-0.1-0.3l-0.1,0.3H1.9l0.2,0.2v0.1h0.3v-0.1L2.7,11.1z M9.5,10.3H9.2l0.2,0.2l-0.1,0.3l0.2-0.2l0.2,0.2l-0.1-0.3
		l0.2-0.2H9.7v-0.1L9.5,10.3L9.5,10.3z M4.3,11.1H4l-0.1-0.3l-0.1,0.3H3.5l0.2,0.2v0.1h0.3v-0.1L4.3,11.1z M3.5,8.7H3.2L3.1,8.4
		L3.1,8.7H2.7L3,8.9L2.9,9h0.5L3.3,8.9L3.5,8.7z M1.4,10.3H1.1l0.2,0.2l-0.1,0.3l0.2-0.2l0.2,0.2l-0.1-0.3l0.2-0.2H1.6v-0.1
		L1.4,10.3L1.4,10.3z M1.9,8.7H1.6L1.5,8.4L1.4,8.7H1.1l0.2,0.2L1.3,9h0.4V8.9L1.9,8.7z M3.1,10.3H2.7L3,10.5l-0.1,0.3l0.2-0.2
		l0.2,0.2l-0.1-0.3l0.2-0.2H3.2v-0.1L3.1,10.3L3.1,10.3z M4.7,10.3H4.3l0.2,0.2l-0.1,0.3l0.2-0.2L5,10.8l-0.1-0.3l0.2-0.2H4.8v-0.1
		L4.7,10.3L4.7,10.3z M6.3,10.3H6l0.2,0.2l-0.1,0.3l0.2-0.2l0.2,0.2l-0.1-0.3l0.2-0.2H6.4v-0.1L6.3,10.3L6.3,10.3z M2.2,8.1L2.1,8.4
		l0.2-0.2l0.2,0.2L2.5,8.1l0.2-0.2H1.9L2.2,8.1z M7,8.1L6.9,8.4l0.2-0.2l0.2,0.2L7.3,8.1l0.2-0.2H6.8L7,8.1z M4.3,6.3H4L3.9,6
		L3.9,6.3H3.5l0.2,0.2L3.7,6.7h0.1l0.2-0.2l0.2,0.2h0.1L4.1,6.5L4.3,6.3z M7.8,5.7L7.7,6L8,5.7L8.2,6L8.1,5.7l0.1-0.1L7.8,5.7
		L7.8,5.7z M2.7,6.3H2.4L2.3,6L2.3,6.3H1.9l0.2,0.2L2.1,6.7h0.1l0.2-0.2l0.2,0.2h0.1L2.5,6.5L2.7,6.3z M6,6.3H5.6L5.6,6L5.5,6.3H5.1
		l0.2,0.2L5.3,6.7h0.1l0.2-0.2l0.2,0.2h0.1L5.7,6.5L6,6.3z M7.6,6.3H7.2L7.2,6L7.1,6.3H6.8L7,6.5L6.9,6.7H7l0.2-0.2l0.2,0.2h0.1
		L7.3,6.5L7.6,6.3z M9.2,6.3H8.9L8.8,6L8.7,6.3H8.4l0.2,0.2L8.5,6.7h0.1l0.2-0.2l0.2,0.2H9L8.9,6.5L9.2,6.3z M6.2,5.7L6.1,6l0.2-0.2
		L6.6,6L6.5,5.7l0.1-0.1L6.2,5.7L6.2,5.7z M3,5.7L2.9,6l0.2-0.2L3.4,6L3.3,5.7l0.1-0.1L3,5.7L3,5.7z M9.4,5.7L9.3,6l0.2-0.2L9.8,6
		L9.7,5.7l0.1-0.1L9.4,5.7L9.4,5.7z M1.4,5.7L1.3,6l0.2-0.2L1.8,6L1.7,5.7l0.1-0.1L1.4,5.7L1.4,5.7z M4.6,5.7L4.5,6l0.2-0.2L5,6
		L4.9,5.7L5,5.6L4.6,5.7L4.6,5.7z M10,11.9H9.7l-0.1-0.3l-0.1,0.3H9.2l0.2,0.2l-0.1,0.3l0.2-0.2l0.2,0.2l-0.1-0.3L10,11.9z M9.7,5.5
		L9.6,5.2L9.5,5.5H9.2l0.2,0.1h0.5L10,5.5H9.7z M8.5,11.6l0.2-0.2L9,11.6l-0.1-0.2H8.6L8.5,11.6z M3.2,5.5L3.1,5.2L3.1,5.5H2.7
		l0.2,0.1h0.5l0.2-0.1L3.2,5.5z M1.6,5.5L1.5,5.2L1.4,5.5H1.1l0.2,0.1h0.5l0.2-0.1L1.6,5.5z M8,5.5L8,5.2L7.9,5.5H7.6l0.2,0.1h0.5
		l0.2-0.1L8,5.5z M4.8,5.5L4.7,5.2L4.7,5.5H4.3l0.2,0.1H5l0.2-0.1L4.8,5.5z M6.9,11.6l0.2-0.2l0.2,0.2l-0.1-0.2H7L6.9,11.6z
		 M2.1,11.6l0.2-0.2l0.2,0.2l-0.1-0.2H2.2L2.1,11.6z M5.3,11.6l0.2-0.2l0.2,0.2l-0.1-0.2H5.4L5.3,11.6z M3.7,11.6l0.2-0.2l0.2,0.2
		l-0.1-0.2H3.8L3.7,11.6z M6.4,5.5L6.4,5.2L6.3,5.5H6l0.2,0.1h0.5l0.2-0.1L6.4,5.5z M1.6,7.1L1.5,6.8L1.4,7.1H1.1l0.2,0.2L1.3,7.6
		l0.2-0.2l0.2,0.2L1.7,7.3l0.2-0.2H1.6z M8.5,10l0.2-0.2L9,10L8.9,9.7l0.2-0.2H8.9L8.8,9.2L8.7,9.5H8.4l0.2,0.2L8.5,10z M6.9,10
		l0.2-0.2L7.4,10L7.3,9.7l0.2-0.2H7.2L7.2,9.2L7.1,9.5H6.8L7,9.7L6.9,10z M2.9,7.6l0.2-0.2l0.2,0.2L3.3,7.3l0.2-0.2H3.2L3.1,6.8
		L3.1,7.1H2.7L3,7.3L2.9,7.6z M2.1,10l0.2-0.2L2.6,10L2.5,9.7l0.2-0.2H2.4L2.3,9.2L2.3,9.5H1.9l0.2,0.2L2.1,10z M5.3,10l0.2-0.2
		L5.8,10L5.7,9.7L6,9.5H5.6L5.6,9.2L5.5,9.5H5.1l0.2,0.2L5.3,10z M1.9,11.9H1.6l-0.1-0.3l-0.1,0.3H1.1l0.2,0.2l-0.1,0.3l0.2-0.2
		l0.2,0.2l-0.1-0.3L1.9,11.9z M3.7,10l0.2-0.2L4.2,10L4.1,9.7l0.2-0.2H4L3.9,9.2L3.9,9.5H3.5l0.2,0.2L3.7,10z M9.3,7.6l0.2-0.2
		l0.2,0.2L9.7,7.3L10,7.1H9.7L9.6,6.8L9.5,7.1H9.2l0.2,0.2L9.3,7.6z"/>
	<path class="st2" d="M5.6,7.9L5.6,7.6L5.5,7.9H5.1H6H5.6z M7.7,7.6L8,7.3l0.2,0.2L8.1,7.3l0.2-0.2H8L8,6.8L7.9,7.1H7.6l0.2,0.2
		L7.7,7.6z M4.5,7.6l0.2-0.2L5,7.6L4.9,7.3l0.2-0.2H4.8L4.7,6.8L4.7,7.1H4.3l0.2,0.2L4.5,7.6z M8.4,11.9H8L8,11.6l-0.1,0.3H7.6
		l0.2,0.2l-0.1,0.3L8,12.2l0.2,0.2l-0.1-0.3L8.4,11.9z M3.5,11.9H3.2l-0.1-0.3l-0.1,0.3H2.7L3,12.1l-0.1,0.3l0.2-0.2l0.2,0.2
		l-0.1-0.3L3.5,11.9z M5.1,11.9H4.8l-0.1-0.3l-0.1,0.3H4.3l0.2,0.2l-0.1,0.3l0.2-0.2L5,12.4l-0.1-0.3L5.1,11.9z M6.1,7.6l0.2-0.2
		l0.2,0.2L6.5,7.3l0.2-0.2H6.4L6.4,6.8L6.3,7.1H6l0.2,0.2L6.1,7.6z M6.8,11.9H6.4l-0.1-0.3l-0.1,0.3H6l0.2,0.2l-0.1,0.3l0.2-0.2
		l0.2,0.2l-0.1-0.3L6.8,11.9z M6.9,6.8L6.9,6.8L6.9,6.8L6.9,6.8z M4.2,6.8L4.2,6.8L4.2,6.8L4.2,6.8z M3.7,6.8L3.7,6.8L3.7,6.8
		L3.7,6.8z M5.8,6.8L5.8,6.8L5.8,6.8L5.8,6.8z M5.3,6.8L5.3,6.8L5.3,6.8L5.3,6.8z M1.3,9.2L1.4,9H1.3V9.2z M2.1,6.8L2.1,6.8L2.1,6.8
		L2.1,6.8z M1.8,9.2L1.7,9H1.6L1.8,9.2z M2.6,6.8L2.6,6.8L2.6,6.8L2.6,6.8z M7.2,7.9L7.2,7.6L7.1,7.9H6.8h0.8H7.2z M2.4,7.9L2.3,7.6
		L2.3,7.9H1.9h0.8H2.4z M4,7.9L3.9,7.6L3.9,7.9H3.5h0.8H4z M8.5,6.8L8.5,6.8L8.5,6.8L8.5,6.8z M7.4,6.8L7.4,6.8L7.4,6.8L7.4,6.8z
		 M9,6.8L9,6.8L9,6.8L9,6.8z M8.9,7.9L8.8,7.6L8.7,7.9H8.4h0.8H8.9z M4.7,10.2h0.2L4.7,10L4.7,10.2z M2.9,9.2L3.1,9H2.9V9.2z
		 M7.9,10.2H8L8,10L7.9,10.2z M9.8,9.2V9H9.7L9.8,9.2z M9.3,9.2L9.5,9H9.4L9.3,9.2z M6.3,10.2h0.2L6.4,10L6.3,10.2z M3.1,10.2h0.2
		L3.1,10L3.1,10.2z M1.4,10.2h0.2L1.5,10L1.4,10.2z M9.5,10.2h0.2L9.6,10L9.5,10.2z M4.5,9.2L4.7,9H4.5V9.2z M8.2,9.2V9H8L8.2,9.2z
		 M5,9.2V9H4.8L5,9.2z M3.4,9.2V9H3.2L3.4,9.2z M7.7,9.2L7.9,9H7.8L7.7,9.2z M6.1,9.2L6.3,9H6.2L6.1,9.2z M6.6,9.2V9H6.4L6.6,9.2z"
		/>
</g>
</svg>
